<?xml version="1.0" standalone="no"?><svg xmlns="http://www.w3.org/2000/svg" viewBox="0 0 1440 320"><path fill="#D8CAA1" fill-opacity="1" d="M0,192L26.7,181.3C53.3,171,107,149,160,149.3C213.3,149,267,171,320,197.3C373.3,224,427,256,480,229.3C533.3,203,587,117,640,122.7C693.3,128,747,224,800,234.7C853.3,245,907,171,960,165.3C1013.3,160,1067,224,1120,250.7C1173.3,277,1227,267,1280,245.3C1333.3,224,1387,192,1413,176L1440,160L1440,320L1413.3,320C1386.7,320,1333,320,1280,320C1226.7,320,1173,320,1120,320C1066.7,320,1013,320,960,320C906.7,320,853,320,800,320C746.7,320,693,320,640,320C586.7,320,533,320,480,320C426.7,320,373,320,320,320C266.7,320,213,320,160,320C106.7,320,53,320,27,320L0,320Z"></path></svg>